PathFileType	4	(X/Y/Z)	Walk1.trc
DataRate	CameraRate	NumFrames	NumMarkers	Units	OrigDataRate	OrigDataStartFrame	OrigNumFrames
200.000000	200.000000	4	59	mm	200.000000	282	485
Frame#	Times		LFHD		RFHD		LBHD		RBHD		C7		T10		CLAV		STRN		RBack		LASI		RASI		LPSI		RPSI		RACR1		RUA1		RElbow		RElbowM		RFA1		RWRR		RWRU		RCAR		LACR1		LUA1		LElbow		LElbowM		LFA1		LWRR		LCAR		RTH1		RTH3		RTH2		RTH4		RLFC		RTB1		RTB3		RTB2		RTB4		RLMAL		RMT1		RMT5		LTH1		LTH3		LTH2		LTH4		LLFC		LTB1		LTB3		LTB2		LTB4		LLMAL		LMMAL		LMT1		LMT5		LToe		RMMAL		LWRU		RToe		LCAL		RCAL
			X1	Y1	Z1	X2	Y2	Z2	X3	Y3	Z3	X4	Y4	Z4	X5	Y5	Z5	X6	Y6	Z6	X7	Y7	Z7	X8	Y8	Z8	X9	Y9	Z9	X10	Y10	Z10	X11	Y11	Z11	X12	Y12	Z12	X13	Y13	Z13	X14	Y14	Z14	X15	Y15	Z15	X16	Y16	Z16	X17	Y17	Z17	X18	Y18	Z18	X19	Y19	Z19	X20	Y20	Z20	X21	Y21	Z21	X22	Y22	Z22	X23	Y23	Z23	X24	Y24	Z24	X25	Y25	Z25	X26	Y26	Z26	X27	Y27	Z27	X28	Y28	Z28	X29	Y29	Z29	X30	Y30	Z30	X31	Y31	Z31	X32	Y32	Z32	X33	Y33	Z33	X34	Y34	Z34	X35	Y35	Z35	X36	Y36	Z36	X37	Y37	Z37	X38	Y38	Z38	X39	Y39	Z39	X40	Y40	Z40	X41	Y41	Z41	X42	Y42	Z42	X43	Y43	Z43	X44	Y44	Z44	X45	Y45	Z45	X46	Y46	Z46	X47	Y47	Z47	X48	Y48	Z48	X49	Y49	Z49	X50	Y50	Z50	X51	Y51	Z51	X52	Y52	Z52	X53	Y53	Z53	X54	Y54	Z54	X55	Y55	Z55	X56	Y56	Z56	X57	Y57	Z57	X58	Y58	Z58	X59	Y59	Z59

282	1.41	173.37	1564.7	-75.61	192.87	1569.4	17.314	24.028	1503.6	-72.367	46.764	1517.5	66.688	3.6711	1384.9	-2.2329	-61.717	1116.2	-13.798	142.94	1308.3	-12.516	204.79	1204.3	-8.2459	-49.803	1283.6	96.349	193.63	925.38	-155.93	207.78	948.09	139.54	-50.608	933.52	-36.408	-44.816	936.54	53.298	74.527	1338.1	146.34	40.45	1153.7	234.97	-20.611	1036.4	251.24	-20.331	1007.7	156.78	-36.388	892.28	267.88	27.234	782.05	239.15	-31.2	782.98	278.68	23.393	728.92	289.71	78.741	1344.5	-165.94	118.05	1171.6	-259.58	125.44	1046	-295.16	88.437	1004.5	-231.46	199.28	926.19	-296.87	307.84	872.56	-229.34	349.58	841.06	-265.59	175.71	722.9	213.08	228.34	564.04	167.4	251.45	666.51	167.31	201.57	642.44	190.76	255.88	488.35	139.55	337.96	352.78	64.322	366.06	182.13	70.615	333.21	266.36	124.19	352.08	266.17	64.255	351.32	61.891	100.4	467.84	40.954	37.495	440.66	25.901	109.86	61.342	727.46	-226.39	2.053	581.53	-159.64	87.229	643.45	-172.65	31.883	656.32	-187.92	-40.925	466.29	-126.34	-68.342	314.67	-50.369	-172.62	177.48	-52.372	-139.66	259.04	-106.69	-122.68	246.9	-48.778	-265.48	106.36	-77.064	-251.38	103.4	7.3031	-172.39	34.984	-9.6328	-203.37	33.013	-87.334	-105.65	20.577	-40.251	362.83	71.784	17.414	277.83	837.82	-286.57	530.78	48.627	63.972	-335.29	107.19	-43.034	291.16	24.645	64.312
283	1.415	179.33	1565.1	-75.006	198.96	1569.6	17.872	30.005	1503.7	-71.679	52.891	1517.6	67.217	10.033	1385.1	-1.5924	-55.334	1116.5	-13.451	149.08	1308.5	-11.82	211.32	1204.6	-7.5518	-43.559	1283.7	97.181	200.43	925.21	-154.72	214.9	948.76	139.96	-43.418	933.37	-36.27	-37.839	937.05	53.516	81.099	1338.2	147	47.346	1153.7	235.55	-13.545	1036.5	252.08	-13.009	1007.4	157.45	-29.008	892.24	268.35	34.453	782.15	239.8	-24.33	783.08	279.52	31.018	728.97	290.44	85.209	1344.4	-165.36	123.24	1171.2	-258.85	130.09	1045.6	-294.1	93.3	1004.5	-230.44	203.67	925.5	-296.09	312.34	871.64	-228.64	353.74	840.14	-265.13	183.21	723.94	213.18	235.15	564.83	167.25	258.83	667.28	167.58	208.78	643.26	190.84	263.19	489.28	139.49	342.85	352.46	62.777	369	181.54	69.283	338.42	266.43	123.36	356.13	265.7	62.782	352.95	61.844	99.933	468.64	39.214	37.273	440.91	26.773	110.63	68.816	726.99	-225.73	9.6925	581.1	-159.19	94.592	643.03	-171.71	39.248	655.84	-187.1	-33.301	465.57	-125.88	-63.131	314.35	-50.073	-169.18	178.75	-52.603	-134.69	259.78	-106.84	-117.96	246.87	-49.753	-263.03	109.07	-77.552	-248.99	105.84	6.943	-171.91	35.228	-9.8668	-202.74	33.504	-87.074	-105.55	20.539	-40.208	363.49	70.92	16.814	282.07	836.61	-285.67	531.81	45.821	63.349	-332.61	111.41	-43.577	291.86	25.141	64.384
284	1.42	185.63	1565.4	-74.372	205.2	1570.1	18.493	36.242	1504	-71.12	59.004	1517.9	67.994	16.629	1385.5	-0.87006	-48.73	1116.9	-13.071	155.51	1308.8	-11.078	217.88	1204.9	-6.7687	-36.885	1283.9	97.842	207.33	925.05	-153.36	221.68	949.63	140.45	-36.584	934.01	-36.018	-31.115	937.4	53.594	87.623	1338.4	147.59	54.381	1153.8	236.18	-6.3656	1036.4	252.64	-6.1578	1007.6	158.13	-21.777	892.25	269.24	41.793	782.05	240.6	-16.773	783.4	280.48	38.391	729.1	291.22	91.589	1344.5	-164.91	128.38	1171	-258.21	134.84	1045.3	-293.42	98.137	1004.3	-229.52	207.67	924.79	-295.15	316.52	870.79	-227.97	357.61	838.99	-264.6	190.56	725.14	213.21	241.75	565.78	167.07	265.89	668.16	167.67	215.49	644.2	190.8	270.58	490.51	139.45	347.7	352.2	61.371	371.67	181.06	68.393	343.33	266.62	122.41	359.86	265.27	61.588	354.12	61.9	99.418	469.08	37.443	36.536	441.12	26.974	111.4	76.463	726.35	-225.04	17.371	580.47	-158.5	102.31	642.78	-170.79	46.741	655.3	-186.44	-25.359	464.93	-125.51	-57.201	314.02	-49.935	-165.41	180.17	-53.022	-129.64	260.41	-106.97	-112.48	247.03	-50.828	-260.46	111.94	-78.163	-246.62	108.42	6.4181	-171.34	35.519	-10.021	-201.93	34.37	-86.933	-105.4	20.48	-40.163	364.46	70.39	16.135	285.99	835.58	-284.76	532.52	42.739	62.839	-329.85	115.85	-44.192	292.23	25.57	64.224
285	1.425	191.59	1565.8	-73.738	211.3	1570.7	19.081	42.275	1504.2	-70.466	65.175	1518.2	68.59	23.008	1385.8	-0.35526	-42.379	1117.1	-12.793	162.02	1309.2	-10.536	224.61	1205.4	-6.0473	-30.302	1284.3	98.578	214.4	925.12	-151.79	228.68	950.6	141.02	-29.549	934.13	-36.405	-24.502	937.88	53.847	94.05	1338.7	148.09	61.405	1154.1	236.84	1.1452	1036.6	252.83	0.59035	1007.9	158.61	-14.271	892.38	270.15	49.09	782.3	241.47	-9.3739	783.55	281.47	45.578	729.08	291.98	98.228	1344.8	-164.37	133.78	1170.8	-257.86	139.36	1045.1	-292.61	102.63	1004.5	-228.42	211.63	924.13	-294.3	320.77	869.83	-227.33	361.52	837.8	-264.11	197.96	726.43	213.56	248.41	567.02	166.8	273.07	669.35	167.89	222.48	645.59	190.56	278.35	491.9	139.27	352.41	352	60.49	374.11	180.47	67.529	348.04	266.61	121.7	363.33	264.89	60.608	355.01	61.786	99.046	469.36	36.229	35.929	441.49	26.882	111.66	84.336	725.83	-224.32	25.293	579.71	-158	110.07	642.26	-170	54.572	654.5	-185.72	-17.07	464.36	-125.19	-51.305	313.75	-49.829	-161.39	181.57	-53.288	-124.12	261.23	-107.16	-107.09	247.33	-51.491	-257.65	114.9	-78.77	-243.72	111.24	5.9659	-170.64	35.953	-10.16	-201.03	35.442	-86.834	-105.28	20.411	-40.088	365.24	70.049	15.94	289.3	834.91	-283.89	533.55	40.499	62.237	-326.75	120.49	-44.607	292.44	25.825	64.153
